<svg id="visual" viewBox="0 0 450 900" width="450" height="900" xmlns="http://www.w3.org/2000/svg" xmlns:xlink="http://www.w3.org/1999/xlink" version="1.1"><rect x="0" y="0" width="450" height="900" fill="#8a2be2"></rect><defs><linearGradient id="grad1_0" x1="0%" y1="0%" x2="100%" y2="100%"><stop offset="30%" stop-color="#ffa500" stop-opacity="1"></stop><stop offset="70%" stop-color="#ffa500" stop-opacity="1"></stop></linearGradient></defs><defs><linearGradient id="grad1_1" x1="0%" y1="0%" x2="100%" y2="100%"><stop offset="30%" stop-color="#ffa500" stop-opacity="1"></stop><stop offset="70%" stop-color="#8a2be2" stop-opacity="1"></stop></linearGradient></defs><defs><linearGradient id="grad2_0" x1="0%" y1="0%" x2="100%" y2="100%"><stop offset="30%" stop-color="#ffa500" stop-opacity="1"></stop><stop offset="70%" stop-color="#ffa500" stop-opacity="1"></stop></linearGradient></defs><defs><linearGradient id="grad2_1" x1="0%" y1="0%" x2="100%" y2="100%"><stop offset="30%" stop-color="#8a2be2" stop-opacity="1"></stop><stop offset="70%" stop-color="#ffa500" stop-opacity="1"></stop></linearGradient></defs><g transform="translate(450, 0)"><path d="M0 329C-35 351.8 -69.9 374.6 -99.1 369.9C-128.3 365.3 -151.7 333.2 -183 317C-214.3 300.7 -253.5 300.3 -282.1 282.1C-310.8 264 -328.9 228.1 -334.3 193C-339.7 157.9 -332.3 123.7 -341.9 91.6C-351.6 59.6 -378.3 29.8 -405 0L0 0Z" fill="#ff006e"></path><path d="M0 164.5C-17.5 175.9 -35 187.3 -49.6 185C-64.2 182.7 -75.9 166.6 -91.5 158.5C-107.1 150.4 -126.7 150.1 -141.1 141.1C-155.4 132 -164.5 114 -167.1 96.5C-169.8 79 -166.1 61.8 -171 45.8C-175.8 29.8 -189.1 14.9 -202.5 0L0 0Z" fill="#ffa500"></path></g><g transform="translate(0, 900)"><path d="M0 -373C26.1 -351.2 52.1 -329.3 88.3 -329.4C124.4 -329.4 170.6 -351.3 193.5 -335.2C216.4 -319 215.9 -264.7 237.6 -237.6C259.2 -210.5 303 -210.6 334.3 -193C365.6 -175.4 384.5 -140 391.2 -104.8C397.9 -69.7 392.5 -34.8 387 0L0 0Z" fill="#ff006e"></path><path d="M0 -186.5C13 -175.6 26.1 -164.7 44.1 -164.7C62.2 -164.7 85.3 -175.7 96.7 -167.6C108.2 -159.5 108 -132.3 118.8 -118.8C129.6 -105.3 151.5 -105.3 167.1 -96.5C182.8 -87.7 192.2 -70 195.6 -52.4C199 -34.8 196.2 -17.4 193.5 0L0 0Z" fill="#ffa500"></path></g></svg>