<svg id="visual" viewBox="0 0 450 900" width="450" height="900" xmlns="http://www.w3.org/2000/svg" xmlns:xlink="http://www.w3.org/1999/xlink" version="1.1"><rect x="0" y="0" width="450" height="900" fill="#8a2be2"></rect><defs><linearGradient id="grad1_0" x1="0%" y1="0%" x2="100%" y2="100%"><stop offset="30%" stop-color="#ffb6c1" stop-opacity="1"></stop><stop offset="70%" stop-color="#ffb6c1" stop-opacity="1"></stop></linearGradient></defs><defs><linearGradient id="grad1_1" x1="0%" y1="0%" x2="100%" y2="100%"><stop offset="30%" stop-color="#ffb6c1" stop-opacity="1"></stop><stop offset="70%" stop-color="#fb8cb6" stop-opacity="1"></stop></linearGradient></defs><defs><linearGradient id="grad1_2" x1="0%" y1="0%" x2="100%" y2="100%"><stop offset="30%" stop-color="#ea62bb" stop-opacity="1"></stop><stop offset="70%" stop-color="#fb8cb6" stop-opacity="1"></stop></linearGradient></defs><defs><linearGradient id="grad1_3" x1="0%" y1="0%" x2="100%" y2="100%"><stop offset="30%" stop-color="#ea62bb" stop-opacity="1"></stop><stop offset="70%" stop-color="#c93dcb" stop-opacity="1"></stop></linearGradient></defs><defs><linearGradient id="grad1_4" x1="0%" y1="0%" x2="100%" y2="100%"><stop offset="30%" stop-color="#8a2be2" stop-opacity="1"></stop><stop offset="70%" stop-color="#c93dcb" stop-opacity="1"></stop></linearGradient></defs><defs><linearGradient id="grad2_0" x1="0%" y1="0%" x2="100%" y2="100%"><stop offset="30%" stop-color="#ffb6c1" stop-opacity="1"></stop><stop offset="70%" stop-color="#ffb6c1" stop-opacity="1"></stop></linearGradient></defs><defs><linearGradient id="grad2_1" x1="0%" y1="0%" x2="100%" y2="100%"><stop offset="30%" stop-color="#fb8cb6" stop-opacity="1"></stop><stop offset="70%" stop-color="#ffb6c1" stop-opacity="1"></stop></linearGradient></defs><defs><linearGradient id="grad2_2" x1="0%" y1="0%" x2="100%" y2="100%"><stop offset="30%" stop-color="#fb8cb6" stop-opacity="1"></stop><stop offset="70%" stop-color="#ea62bb" stop-opacity="1"></stop></linearGradient></defs><defs><linearGradient id="grad2_3" x1="0%" y1="0%" x2="100%" y2="100%"><stop offset="30%" stop-color="#c93dcb" stop-opacity="1"></stop><stop offset="70%" stop-color="#ea62bb" stop-opacity="1"></stop></linearGradient></defs><defs><linearGradient id="grad2_4" x1="0%" y1="0%" x2="100%" y2="100%"><stop offset="30%" stop-color="#c93dcb" stop-opacity="1"></stop><stop offset="70%" stop-color="#8a2be2" stop-opacity="1"></stop></linearGradient></defs><g transform="translate(450, 0)"><path d="M0 450C-22.3 435.6 -44.6 421.3 -64.9 409.9C-85.3 398.5 -103.7 390.1 -127 390.9C-150.4 391.7 -178.6 401.7 -203.8 400.1C-229 398.4 -251.1 385 -264.5 364.1C-277.9 343.1 -282.5 314.6 -295.6 295.6C-308.6 276.6 -330.2 267.1 -347.9 252.7C-365.6 238.4 -379.5 219.3 -389.4 198.4C-399.2 177.5 -405 154.9 -408 132.6C-411 110.2 -411.3 88.2 -417.8 66.2C-424.3 44.1 -437.2 22.1 -450 0L0 0Z" fill="#af30d6"></path><path d="M0 360C-17.8 348.5 -35.7 337 -51.9 327.9C-68.2 318.8 -82.9 312.1 -101.6 312.7C-120.3 313.4 -142.9 321.4 -163.1 320C-183.2 318.7 -200.9 308 -211.6 291.2C-222.3 274.5 -226 251.7 -236.5 236.5C-246.9 221.2 -264.1 213.7 -278.3 202.2C-292.5 190.7 -303.6 175.4 -311.5 158.7C-319.4 142 -324 123.9 -326.4 106.1C-328.8 88.2 -329 70.6 -334.2 52.9C-339.5 35.3 -349.7 17.7 -360 0L0 0Z" fill="#dc4fc1"></path><path d="M0 270C-13.4 261.4 -26.7 252.8 -39 245.9C-51.2 239.1 -62.2 234 -76.2 234.5C-90.2 235 -107.2 241 -122.3 240C-137.4 239 -150.7 231 -158.7 218.4C-166.7 205.9 -169.5 188.7 -177.3 177.3C-185.2 165.9 -198.1 160.2 -208.7 151.6C-219.4 143.1 -227.7 131.6 -233.6 119C-239.5 106.5 -243 92.9 -244.8 79.5C-246.6 66.1 -246.8 52.9 -250.7 39.7C-254.6 26.5 -262.3 13.2 -270 0L0 0Z" fill="#f577b7"></path><path d="M0 180C-8.9 174.3 -17.8 168.5 -26 164C-34.1 159.4 -41.5 156 -50.8 156.4C-60.1 156.7 -71.5 160.7 -81.5 160C-91.6 159.4 -100.5 154 -105.8 145.6C-111.1 137.2 -113 125.8 -118.2 118.2C-123.5 110.6 -132.1 106.8 -139.2 101.1C-146.2 95.4 -151.8 87.7 -155.7 79.4C-159.7 71 -162 62 -163.2 53C-164.4 44.1 -164.5 35.3 -167.1 26.5C-169.7 17.7 -174.9 8.8 -180 0L0 0Z" fill="#fea1ba"></path><path d="M0 90C-4.5 87.1 -8.9 84.3 -13 82C-17.1 79.7 -20.7 78 -25.4 78.2C-30.1 78.3 -35.7 80.3 -40.8 80C-45.8 79.7 -50.2 77 -52.9 72.8C-55.6 68.6 -56.5 62.9 -59.1 59.1C-61.7 55.3 -66 53.4 -69.6 50.5C-73.1 47.7 -75.9 43.9 -77.9 39.7C-79.8 35.5 -81 31 -81.6 26.5C-82.2 22 -82.3 17.6 -83.6 13.2C-84.9 8.8 -87.4 4.4 -90 0L0 0Z" fill="#ffb6c1"></path></g><g transform="translate(0, 900)"><path d="M0 -450C23.7 -444 47.4 -437.9 67.4 -425.7C87.5 -413.4 103.9 -395 127.3 -391.8C150.8 -388.7 181.2 -400.9 198.4 -389.4C215.5 -377.8 219.4 -342.5 238.1 -327.7C256.7 -312.8 290.3 -318.5 305.5 -305.5C320.6 -292.4 317.4 -260.5 334.1 -242.8C350.9 -225 387.5 -221.3 401 -204.3C414.4 -187.3 404.5 -156.9 409 -132.9C413.4 -108.8 432.3 -91 441.5 -69.9C450.7 -48.8 450.4 -24.4 450 0L0 0Z" fill="#af30d6"></path><path d="M0 -360C19 -355.2 37.9 -350.4 53.9 -340.6C70 -330.8 83.1 -316 101.9 -313.5C120.6 -311 145 -320.7 158.7 -311.5C172.4 -302.2 175.5 -274 190.4 -262.1C205.4 -250.3 232.2 -254.8 244.4 -244.4C256.5 -233.9 253.9 -208.4 267.3 -194.2C280.7 -180 310 -177 320.8 -163.4C331.5 -149.8 323.6 -125.6 327.2 -106.3C330.7 -87 345.8 -72.8 353.2 -55.9C360.6 -39.1 360.3 -19.5 360 0L0 0Z" fill="#dc4fc1"></path><path d="M0 -270C14.2 -266.4 28.4 -262.8 40.5 -255.4C52.5 -248.1 62.3 -237 76.4 -235.1C90.5 -233.2 108.7 -240.6 119 -233.6C129.3 -226.7 131.6 -205.5 142.8 -196.6C154 -187.7 174.2 -191.1 183.3 -183.3C192.4 -175.4 190.4 -156.3 200.5 -145.7C210.5 -135 232.5 -132.8 240.6 -122.6C248.6 -112.4 242.7 -94.2 245.4 -79.7C248.1 -65.3 259.4 -54.6 264.9 -42C270.4 -29.3 270.2 -14.6 270 0L0 0Z" fill="#f577b7"></path><path d="M0 -180C9.5 -177.6 19 -175.2 27 -170.3C35 -165.4 41.5 -158 50.9 -156.7C60.3 -155.5 72.5 -160.4 79.4 -155.7C86.2 -151.1 87.7 -137 95.2 -131.1C102.7 -125.1 116.1 -127.4 122.2 -122.2C128.3 -117 127 -104.2 133.6 -97.1C140.3 -90 155 -88.5 160.4 -81.7C165.7 -74.9 161.8 -62.8 163.6 -53.2C165.4 -43.5 172.9 -36.4 176.6 -28C180.3 -19.5 180.1 -9.8 180 0L0 0Z" fill="#fea1ba"></path><path d="M0 -90C4.7 -88.8 9.5 -87.6 13.5 -85.1C17.5 -82.7 20.8 -79 25.5 -78.4C30.2 -77.7 36.2 -80.2 39.7 -77.9C43.1 -75.6 43.9 -68.5 47.6 -65.5C51.3 -62.6 58.1 -63.7 61.1 -61.1C64.1 -58.5 63.5 -52.1 66.8 -48.6C70.2 -45 77.5 -44.3 80.2 -40.9C82.9 -37.5 80.9 -31.4 81.8 -26.6C82.7 -21.8 86.5 -18.2 88.3 -14C90.1 -9.8 90.1 -4.9 90 0L0 0Z" fill="#ffb6c1"></path></g></svg>